<mxfile host="app.diagrams.net" modified="2023-07-17T08:06:19.280Z" agent="Mozilla/5.0 (Windows NT 10.0; Win64; x64) AppleWebKit/537.36 (KHTML, like Gecko) Chrome/114.0.0.0 Safari/537.36" version="21.6.2" etag="WC7FwA5KF1ndJlsetFiN" type="github">
  <diagram name="Page-1" id="SOD3_kkC99ipHBAxkCrn">
    <mxGraphModel>
      <root>
        <mxCell id="0" />
        <mxCell id="1" parent="0" />
      </root>
    </mxGraphModel>
  </diagram>
</mxfile>
